HIERARCHY
ROOT joint_Root
{
	OFFSET 0.0 0.0 0.0
	CHANNELS 6 Xposition Yposition Zposition Zrotation Xrotation Yrotation 
	JOINT Hips
	{
		OFFSET -0.726466 93.3139 -2.00062
		CHANNELS 6 Xposition Yposition Zposition Zrotation Xrotation Yrotation 
		JOINT Spine
		{
			OFFSET 15.7357 0.0 0.0
			CHANNELS 6 Xposition Yposition Zposition Zrotation Xrotation Yrotation 
			JOINT Chest
			{
				OFFSET 8.98455 -0.406207 0.0
				CHANNELS 6 Xposition Yposition Zposition Zrotation Xrotation Yrotation 
				JOINT Neck
				{
					OFFSET 16.3773 0.0 0.0
					CHANNELS 6 Xposition Yposition Zposition Zrotation Xrotation Yrotation 
					JOINT Head
					{
						OFFSET 6.45672 0.0 0.0
						CHANNELS 6 Xposition Yposition Zposition Zrotation Xrotation Yrotation 
						End Site
						{
							OFFSET 0.0 0.0 0.0
						}
					}
				}
				JOINT Shoulder_L
				{
					OFFSET 12.9942 -0.242716 4.98039
					CHANNELS 6 Xposition Yposition Zposition Zrotation Xrotation Yrotation 
					JOINT UpperArm_L
					{
						OFFSET 5.34809 0.0 0.0
						CHANNELS 6 Xposition Yposition Zposition Zrotation Xrotation Yrotation 
						JOINT LowerArm_L
						{
							OFFSET 24.3286 1.87007e-05 0.0
							CHANNELS 6 Xposition Yposition Zposition Zrotation Xrotation Yrotation 
							JOINT Hand_L
							{
								OFFSET 22.2916 0.0 0.0
								CHANNELS 6 Xposition Yposition Zposition Zrotation Xrotation Yrotation 
								End Site
								{
									OFFSET 0.0 0.0 0.0
								}
							}
						}
					}
				}
				JOINT Shoulder_R
				{
					OFFSET 12.9945 -0.242716 -4.98039
					CHANNELS 6 Xposition Yposition Zposition Zrotation Xrotation Yrotation 
					JOINT UpperArm_R
					{
						OFFSET -5.34813 0.0 0.0
						CHANNELS 6 Xposition Yposition Zposition Zrotation Xrotation Yrotation 
						JOINT LowerArm_R
						{
							OFFSET -24.3289 0.000322201 0.0
							CHANNELS 6 Xposition Yposition Zposition Zrotation Xrotation Yrotation 
							JOINT Hand_R
							{
								OFFSET -22.2915 -0.000108084 0.0
								CHANNELS 6 Xposition Yposition Zposition Zrotation Xrotation Yrotation 
								End Site
								{
									OFFSET 0.0 0.0 0.0
								}
							}
						}
					}
				}
			}
		}
		JOINT UpperLeg_L
		{
			OFFSET -2.19248 -6.46944 0.0
			CHANNELS 6 Xposition Yposition Zposition Zrotation Xrotation Yrotation 
			JOINT LowerLeg_L
			{
				OFFSET 39.0811 0.0 -1.23785e-05
				CHANNELS 6 Xposition Yposition Zposition Zrotation Xrotation Yrotation 
				JOINT Foot_L
				{
					OFFSET 40.9854 0.0 -1.26872e-05
					CHANNELS 6 Xposition Yposition Zposition Zrotation Xrotation Yrotation 
					JOINT Toes_L
					{
						OFFSET 11.7543 0.0 0.0
						CHANNELS 6 Xposition Yposition Zposition Zrotation Xrotation Yrotation 
						End Site
						{
							OFFSET 0.0 0.0 0.0
						}
					}
				}
			}
		}
		JOINT UpperLeg_R
		{
			OFFSET -2.19251 6.46944 0.0
			CHANNELS 6 Xposition Yposition Zposition Zrotation Xrotation Yrotation 
			JOINT LowerLeg_R
			{
				OFFSET -39.0811 -0.00228153 -0.0401928
				CHANNELS 6 Xposition Yposition Zposition Zrotation Xrotation Yrotation 
				JOINT Foot_R
				{
					OFFSET -40.9854 0.0 0.0
					CHANNELS 6 Xposition Yposition Zposition Zrotation Xrotation Yrotation 
					JOINT Toes_R
					{
						OFFSET -11.7543 0.0 0.0
						CHANNELS 6 Xposition Yposition Zposition Zrotation Xrotation Yrotation 
						End Site
						{
							OFFSET 0.0 0.0 0.0
						}
					}
				}
			}
		}
	}
}
MOTION
Frames:	9
Frame Time:	0.0333333
0.000000 0.000000 0.000000 0.000000 0.000000 -0.000000 -2.874500 92.152500 -2.815810 87.218200 -0.881613 2.802150 15.735700 0.000005 -0.000001 67.235800 85.811300 -64.286900 8.984550 -0.406207 -0.000000 0.055299 -3.438970 5.897250 16.377300 -0.000001 -0.000001 2.436600 -1.035290 -0.169300 6.456720 -0.000001 -0.000000 -1.643810 0.074026 16.270000 12.994200 -0.242716 4.980390 -85.351300 -9.938370 -64.772900 5.348090 -0.000007 -0.000001 -71.868700 -47.870100 -103.766000 24.328600 0.000019 0.000005 8.086160 3.471670 -66.915300 22.291600 -0.000001 0.000005 19.162700 5.621660 -12.735100 12.994500 -0.242716 -4.980390 89.559500 1.172160 -69.404100 -5.348130 -0.000001 -0.000004 -46.268000 79.519700 1.706160 -24.328900 0.000322 -0.000009 23.711700 0.747878 -88.298500 -22.291500 -0.000108 -0.000004 42.904600 5.681200 -20.145900 -2.192480 -6.469440 -0.000000 -166.635000 -15.941300 -2.899640 39.081100 -0.000007 -0.000012 -0.147107 0.429230 18.917900 40.985400 -0.000006 -0.000013 -7.878090 3.902000 -60.739300 11.754300 -0.000000 0.000003 -0.000079 -0.000837 -16.609800 -2.192510 6.469440 -0.000001 176.558000 19.842200 177.552000 -39.081100 -0.002282 -0.040193 -0.070148 0.206899 19.550100 -40.985400 0.000008 0.000006 -3.062090 2.431850 -62.760800 -11.754300 -0.000006 -0.000006 -0.005694 -0.068033 -19.341700
0.000000 0.000000 0.000000 0.000000 0.000000 -0.000000 -2.871820 92.160300 -2.819380 87.208600 -0.926509 2.769230 15.735700 0.000005 -0.000001 67.208400 85.816200 -64.262400 8.984550 -0.406207 -0.000000 0.044586 -3.438950 5.891040 16.377300 -0.000001 -0.000001 2.475410 -1.023520 -0.200442 6.456720 -0.000001 -0.000000 -1.619140 0.088257 16.250800 12.994200 -0.242716 4.980390 -85.350200 -9.946940 -64.786600 5.348090 -0.000007 -0.000001 -71.937100 -47.962700 -103.792000 24.328600 0.000019 0.000005 8.049110 3.460540 -66.885400 22.291600 -0.000001 0.000005 19.236100 5.621150 -12.699100 12.994500 -0.242716 -4.980390 89.553300 1.189290 -69.414000 -5.348130 -0.000001 -0.000004 -46.533300 79.485300 1.998330 -24.328900 0.000322 -0.000009 23.583300 0.743977 -88.297000 -22.291500 -0.000108 -0.000004 42.929400 5.681390 -20.268100 -2.192480 -6.469440 -0.000000 -166.633000 -15.928600 -2.890560 39.081100 -0.000007 -0.000012 -0.148047 0.433603 18.851800 40.985400 -0.000006 -0.000013 -7.889210 3.855740 -60.716000 11.754300 -0.000000 0.000003 -0.000098 -0.001014 -16.616500 -2.192510 6.469440 -0.000001 176.593000 19.826200 177.538000 -39.081100 -0.002282 -0.040193 -0.066899 0.198284 19.501400 -40.985400 0.000008 0.000006 -3.004680 2.433880 -62.739600 -11.754300 -0.000006 -0.000006 -0.006015 -0.070973 -19.461600
0.000000 0.000000 0.000000 0.000000 0.000000 -0.000000 -2.853600 92.150400 -2.809190 87.212000 -0.990409 2.731320 15.735700 0.000005 -0.000001 67.346000 85.824000 -64.409400 8.984550 -0.406207 -0.000000 0.037028 -3.413990 5.872040 16.377300 -0.000001 -0.000001 2.465500 -1.021070 -0.206141 6.456720 -0.000001 -0.000000 -1.557230 0.086179 16.251200 12.994200 -0.242716 4.980390 -85.340400 -9.962290 -64.773500 5.348090 -0.000007 -0.000001 -72.099200 -47.979900 -103.872000 24.328600 0.000019 0.000005 8.088930 3.468980 -66.938400 22.291600 -0.000001 0.000005 19.278200 5.620670 -12.666600 12.994500 -0.242716 -4.980390 89.538600 1.226290 -69.379500 -5.348130 -0.000001 -0.000004 -46.301300 79.460000 1.832020 -24.328900 0.000322 -0.000009 23.438400 0.723762 -88.331800 -22.291500 -0.000108 -0.000004 42.785100 5.681480 -20.332600 -2.192480 -6.469440 -0.000000 -166.660000 -15.947700 -2.960690 39.081100 -0.000007 -0.000012 -0.149103 0.434055 18.958400 40.985400 -0.000006 -0.000013 -7.884920 3.783220 -60.787400 11.754300 -0.000000 0.000003 -0.000082 -0.000865 -16.610900 -2.192510 6.469440 -0.000001 176.555000 19.822400 177.497000 -39.081100 -0.002282 -0.040193 -0.072039 0.212800 19.501200 -40.985400 0.000008 0.000006 -3.208040 2.549470 -62.711400 -11.754300 -0.000006 -0.000006 -0.005724 -0.068306 -19.352800
0.000000 0.000000 0.000000 0.000000 0.000000 -0.000000 -2.845810 92.163200 -2.800190 87.221500 -1.043920 2.746940 15.735700 0.000005 -0.000001 67.423800 85.817100 -64.500700 8.984550 -0.406207 -0.000000 0.053453 -3.407480 5.845450 16.377300 -0.000001 -0.000001 2.520210 -0.984830 -0.231919 6.456720 -0.000001 -0.000000 -1.528450 0.102960 16.303100 12.994200 -0.242716 4.980390 -85.348500 -9.943600 -64.770900 5.348090 -0.000007 -0.000001 -72.191000 -47.988800 -103.916000 24.328600 0.000019 0.000005 8.022800 3.435790 -66.965000 22.291600 -0.000001 0.000005 19.258200 5.620560 -12.658600 12.994500 -0.242716 -4.980390 89.537300 1.230430 -69.390100 -5.348130 -0.000001 -0.000004 -46.347600 79.438200 1.865500 -24.328900 0.000322 -0.000009 23.517900 0.743700 -88.292400 -22.291500 -0.000108 -0.000004 42.763500 5.681470 -20.325000 -2.192480 -6.469440 -0.000000 -166.664000 -15.969300 -2.855160 39.081100 -0.000007 -0.000012 -0.147617 0.432750 18.835300 40.985400 -0.000006 -0.000013 -7.889360 3.758150 -60.746900 11.754300 -0.000000 0.000003 -0.000083 -0.000874 -16.611200 -2.192510 6.469440 -0.000001 176.560000 19.792900 177.539000 -39.081100 -0.002282 -0.040193 -0.066910 0.198780 19.459300 -40.985400 0.000008 0.000006 -3.038990 2.531990 -62.711500 -11.754300 -0.000006 -0.000006 -0.005740 -0.068454 -19.358900
0.000000 0.000000 0.000000 0.000000 0.000000 -0.000000 -2.843860 92.150400 -2.795570 87.201700 -1.092360 2.758820 15.735700 0.000005 -0.000001 67.513700 85.810700 -64.600500 8.984550 -0.406207 -0.000000 0.069858 -3.399200 5.826110 16.377300 -0.000001 -0.000001 2.543500 -0.988891 -0.235390 6.456720 -0.000001 -0.000000 -1.406960 0.109784 16.349700 12.994200 -0.242716 4.980390 -85.341800 -9.943880 -64.739600 5.348090 -0.000007 -0.000001 -72.243600 -47.958400 -103.934000 24.328600 0.000019 0.000005 7.963390 3.410230 -66.963500 22.291600 -0.000001 0.000005 19.249300 5.620990 -12.688400 12.994500 -0.242716 -4.980390 89.542900 1.217810 -69.423600 -5.348130 -0.000001 -0.000004 -46.710300 79.408100 2.180230 -24.328900 0.000322 -0.000009 23.415400 0.760755 -88.244600 -22.291500 -0.000108 -0.000004 42.835700 5.681640 -20.459100 -2.192480 -6.469440 -0.000000 -166.632000 -15.970800 -2.880750 39.081100 -0.000007 -0.000012 -0.150049 0.437025 18.949600 40.985400 -0.000006 -0.000013 -7.895890 3.740690 -60.816900 11.754300 -0.000000 0.000003 -0.000078 -0.000831 -16.609600 -2.192510 6.469440 -0.000001 176.558000 19.790200 177.527000 -39.081100 -0.002282 -0.040193 -0.070865 0.209408 19.507800 -40.985400 0.000008 0.000006 -3.148360 2.559610 -62.721200 -11.754300 -0.000006 -0.000006 -0.005761 -0.068652 -19.366900
0.000000 0.000000 0.000000 0.000000 0.000000 -0.000000 -2.836630 92.151500 -2.776030 87.218200 -1.103540 2.797250 15.735700 0.000005 -0.000001 67.561700 85.794200 -64.670800 8.984550 -0.406207 -0.000000 0.102440 -3.403000 5.782530 16.377300 -0.000001 -0.000001 2.611990 -0.980647 -0.253945 6.456720 -0.000001 -0.000000 -1.356140 0.121663 16.404400 12.994200 -0.242716 4.980390 -85.334200 -9.960890 -64.740900 5.348090 -0.000007 -0.000001 -72.148200 -48.005800 -103.824000 24.328600 0.000019 0.000005 7.908810 3.389870 -66.943100 22.291600 -0.000001 0.000005 19.253600 5.621780 -12.742700 12.994500 -0.242716 -4.980390 89.535600 1.236520 -69.415400 -5.348130 -0.000001 -0.000004 -46.868400 79.350600 2.338620 -24.328900 0.000322 -0.000009 23.441600 0.761664 -88.244700 -22.291500 -0.000108 -0.000004 42.744800 5.681570 -20.401800 -2.192480 -6.469440 -0.000000 -166.641000 -15.975500 -2.811580 39.081100 -0.000007 -0.000012 -0.148680 0.433593 18.927100 40.985400 -0.000006 -0.000013 -7.893640 3.731530 -60.822300 11.754300 -0.000000 0.000003 -0.000077 -0.000825 -16.609400 -2.192510 6.469440 -0.000001 176.521000 19.745100 177.583000 -39.081100 -0.002282 -0.040193 -0.070133 0.207408 19.502100 -40.985400 0.000008 0.000006 -3.136960 2.565740 -62.733900 -11.754300 -0.000006 -0.000006 -0.006087 -0.071624 -19.488100
0.000000 0.000000 0.000000 0.000000 0.000000 -0.000000 -2.844880 92.141100 -2.757100 87.202400 -1.084920 2.858640 15.735700 0.000005 -0.000001 67.589800 85.769000 -64.710600 8.984550 -0.406207 -0.000000 0.150434 -3.416300 5.760490 16.377300 -0.000001 -0.000001 2.702630 -0.975389 -0.292397 6.456720 -0.000001 -0.000000 -1.344540 0.146262 16.464700 12.994200 -0.242716 4.980390 -85.331100 -9.967020 -64.739500 5.348090 -0.000007 -0.000001 -71.999400 -48.033400 -103.705000 24.328600 0.000019 0.000005 8.109460 3.484040 -66.902100 22.291600 -0.000001 0.000005 19.263600 5.620660 -12.665600 12.994500 -0.242716 -4.980390 89.512000 1.296660 -69.376200 -5.348130 -0.000001 -0.000004 -46.832100 79.273000 2.358370 -24.328900 0.000322 -0.000009 23.434500 0.752359 -88.265600 -22.291500 -0.000108 -0.000004 42.672700 5.681630 -20.451700 -2.192480 -6.469440 -0.000000 -166.600000 -15.945000 -2.782820 39.081100 -0.000007 -0.000012 -0.150548 0.436903 19.013100 40.985400 -0.000006 -0.000013 -7.898790 3.734100 -60.875900 11.754300 -0.000000 0.000003 -0.000087 -0.000916 -16.612800 -2.192510 6.469440 -0.000001 176.510000 19.763600 177.632000 -39.081100 -0.002282 -0.040193 -0.070950 0.208899 19.572400 -40.985400 0.000008 0.000006 -3.096950 2.583670 -62.788200 -11.754300 -0.000006 -0.000006 -0.005863 -0.069584 -19.405000
0.000000 0.000000 0.000000 0.000000 0.000000 -0.000000 -2.861550 92.137400 -2.746750 87.171700 -1.061940 2.847270 15.735700 0.000005 -0.000001 67.526600 85.764300 -64.655600 8.984550 -0.406207 -0.000000 0.155678 -3.427900 5.744320 16.377300 -0.000001 -0.000001 2.786210 -0.956899 -0.285154 6.456720 -0.000001 -0.000000 -1.320610 0.157582 16.499100 12.994200 -0.242716 4.980390 -85.318500 -9.981730 -64.712100 5.348090 -0.000007 -0.000001 -71.932300 -48.008100 -103.656000 24.328600 0.000019 0.000005 8.150350 3.519430 -66.798600 22.291600 -0.000001 0.000005 19.223000 5.620410 -12.648000 12.994500 -0.242716 -4.980390 89.517500 1.280710 -69.355300 -5.348130 -0.000001 -0.000004 -47.032400 79.130400 2.476880 -24.328900 0.000322 -0.000009 23.514200 0.789310 -88.187300 -22.291500 -0.000108 -0.000004 42.615100 5.681670 -20.487200 -2.192480 -6.469440 -0.000000 -166.565000 -15.927000 -2.818400 39.081100 -0.000007 -0.000012 -0.149436 0.432589 19.057400 40.985400 -0.000006 -0.000013 -7.904160 3.755930 -60.897500 11.754300 -0.000000 0.000003 -0.000071 -0.000769 -16.607300 -2.192510 6.469440 -0.000001 176.576000 19.745600 177.613000 -39.081100 -0.002282 -0.040193 -0.068489 0.201689 19.598300 -40.985400 0.000008 0.000006 -3.065430 2.481860 -62.818100 -11.754300 -0.000006 -0.000006 -0.006067 -0.071442 -19.480700
0.000000 0.000000 0.000000 0.000000 0.000000 -0.000000 -2.873560 92.130900 -2.737080 87.169600 -1.052820 2.850250 15.735700 0.000005 -0.000001 67.556100 85.764400 -64.701600 8.984550 -0.406207 -0.000000 0.156404 -3.422640 5.711370 16.377300 -0.000001 -0.000001 2.828740 -0.972833 -0.284344 6.456720 -0.000001 -0.000000 -1.274750 0.170198 16.496000 12.994200 -0.242716 4.980390 -85.322300 -9.971490 -64.707400 5.348090 -0.000007 -0.000001 -71.832500 -48.015200 -103.515000 24.328600 0.000019 0.000005 8.139670 3.512110 -66.814200 22.291600 -0.000001 0.000005 19.185100 5.620450 -12.651300 12.994500 -0.242716 -4.980390 89.491000 1.348230 -69.313400 -5.348130 -0.000001 -0.000004 -47.212700 78.988700 2.721830 -24.328900 0.000322 -0.000009 23.674900 0.786085 -88.208500 -22.291500 -0.000108 -0.000004 42.508600 5.681600 -20.426300 -2.192480 -6.469440 -0.000000 -166.540000 -15.920200 -2.809950 39.081100 -0.000007 -0.000012 -0.152080 0.439925 19.070200 40.985400 -0.000006 -0.000013 -7.921110 3.776550 -60.911700 11.754300 -0.000000 0.000003 -0.000082 -0.000867 -16.611000 -2.192510 6.469440 -0.000001 176.569000 19.720700 177.617000 -39.081100 -0.002282 -0.040193 -0.071590 0.210116 19.622500 -40.985400 0.000008 0.000006 -3.110120 2.494510 -62.841000 -11.754300 -0.000006 -0.000006 -0.005898 -0.069908 -19.418200
